<?xml version="1.0" encoding="utf-8"?>
<!-- Generator: Adobe Illustrator 15.0.0, SVG Export Plug-In . SVG Version: 6.00 Build 0)  -->
<!DOCTYPE svg PUBLIC "-//W3C//DTD SVG 1.1//EN" "http://www.w3.org/Graphics/SVG/1.1/DTD/svg11.dtd">
<svg version="1.1" id="Layer_1" xmlns="http://www.w3.org/2000/svg" xmlns:xlink="http://www.w3.org/1999/xlink" x="0px" y="0px"
	 width="595.275px" height="841.89px" viewBox="0 0 595.275 841.89" enable-background="new 0 0 595.275 841.89"
	 xml:space="preserve">
<g>
	
		<rect x="291.664" y="312.685" fill-rule="evenodd" clip-rule="evenodd" fill="#C88F11" stroke="#C88F11" stroke-width="1.1642" stroke-miterlimit="22.9256" width="13.42" height="44.361"/>
	
		<path fill-rule="evenodd" clip-rule="evenodd" fill="#C88F11" stroke="#C88F11" stroke-width="1.1642" stroke-miterlimit="22.9256" d="
		M399.351,351.501v5.545h-55.452c-5.398-0.294-10.02-1.22-13.863-2.772c-9.243-3.697-13.862-10.166-13.862-19.408v-3.327h67.596
		c-0.887-8.207-5.712-12.643-12.144-13.308h-55.452v-5.545h55.452c5.396,0.296,10.019,1.22,13.862,2.773
		c9.242,3.699,13.864,10.167,13.864,19.408v2.218l-67.708,0c0.52,8.946,5.355,13.752,12.174,14.417H399.351z"/>
	<path fill="#5B5B5C" d="M203.284,406.236V387.65h12.649v-4.329h-12.695v-1.176c-0.008-0.957,0.109-1.828,0.353-2.611
		c0.235-0.785,0.635-1.412,1.192-1.882c0.565-0.479,1.318-0.722,2.267-0.729c0.533,0,1.004,0.039,1.404,0.125
		c0.4,0.078,0.768,0.172,1.089,0.298l0.377-4.47c-0.447-0.149-0.98-0.274-1.592-0.392c-0.612-0.11-1.302-0.165-2.079-0.173
		c-0.682,0-1.372,0.07-2.07,0.219c-0.706,0.149-1.388,0.385-2.055,0.707c-0.667,0.33-1.278,0.752-1.851,1.286
		c-0.659,0.635-1.192,1.365-1.6,2.204c-0.408,0.831-0.706,1.726-0.894,2.682c-0.188,0.957-0.282,1.929-0.282,2.926v0.988h-3.105
		v4.329h3.105v18.586H203.284z"/>
	<rect x="213.012" y="383.321" fill="#5B5B5C" width="5.788" height="22.915"/>
	<path fill="#5B5B5C" d="M223.052,383.321l8.517,22.915h5.693l8.752-22.915h-6.07l-3.67,11.622
		c-0.306,1.028-0.588,2.008-0.847,2.941c-0.258,0.934-0.494,1.867-0.706,2.8h-0.142c-0.212-0.933-0.439-1.875-0.69-2.815
		c-0.251-0.941-0.533-1.922-0.863-2.926l-3.717-11.622H223.052z"/>
	<path fill="#5B5B5C" d="M267.415,396.402c0.047-0.259,0.094-0.596,0.133-1.012c0.031-0.416,0.055-0.895,0.055-1.435
		c0-1.02-0.102-2.047-0.313-3.09c-0.212-1.051-0.557-2.055-1.02-3.011c-0.47-0.957-1.09-1.819-1.858-2.572
		c-0.769-0.761-1.702-1.365-2.808-1.804c-1.106-0.439-2.4-0.666-3.882-0.674c-0.206,0.001-0.41,0.007-0.61,0.016v3.945
		c0.092-0.005,0.186-0.008,0.28-0.009c0.957,0.008,1.749,0.205,2.377,0.573c0.627,0.376,1.114,0.854,1.466,1.435
		c0.353,0.581,0.596,1.185,0.729,1.819c0.141,0.644,0.196,1.231,0.181,1.773h-5.034v4.046H267.415L267.415,396.402z M257.112,406.66
		c0.397,0.029,0.804,0.044,1.222,0.047c1.655-0.007,3.153-0.149,4.494-0.416c1.349-0.266,2.517-0.611,3.505-1.042l-0.847-3.953
		c-0.588,0.204-1.208,0.384-1.843,0.541c-0.643,0.157-1.326,0.274-2.071,0.361c-0.737,0.086-1.544,0.133-2.438,0.133
		c-0.702,0-1.376-0.062-2.022-0.193V406.66z M257.112,382.82c-1.228,0.058-2.356,0.274-3.374,0.658
		c-1.184,0.439-2.228,1.051-3.129,1.835s-1.654,1.694-2.258,2.737c-0.604,1.035-1.059,2.157-1.364,3.356
		c-0.307,1.208-0.463,2.447-0.463,3.725c0.007,2.353,0.479,4.392,1.412,6.118c0.933,1.725,2.274,3.066,4.031,4.015
		c1.462,0.79,3.179,1.253,5.146,1.396v-4.521c-0.213-0.043-0.422-0.094-0.629-0.152c-0.832-0.228-1.568-0.589-2.219-1.067
		c-0.651-0.478-1.161-1.098-1.545-1.843c-0.384-0.752-0.604-1.639-0.643-2.674h5.036v-4.046h-5.036
		c0.055-0.596,0.196-1.224,0.424-1.867c0.235-0.651,0.556-1.255,0.98-1.82c0.424-0.557,0.964-1.019,1.607-1.372
		c0.575-0.315,1.25-0.493,2.025-0.533V382.82z"/>
	<path fill="#5B5B5C" d="M274.152,379.039v4.282h-3.247v4.329h3.247v10.775c0,1.506,0.141,2.792,0.439,3.859
		c0.298,1.066,0.761,1.929,1.396,2.588c0.549,0.596,1.239,1.051,2.085,1.38c0.847,0.329,1.812,0.494,2.902,0.501
		c0.902-0.007,1.717-0.063,2.446-0.181c0.729-0.117,1.31-0.258,1.741-0.431l-0.094-4.375c-0.321,0.093-0.651,0.156-0.988,0.188
		c-0.345,0.032-0.768,0.047-1.27,0.047c-0.729,0-1.317-0.157-1.749-0.471c-0.439-0.313-0.752-0.784-0.941-1.411
		c-0.188-0.627-0.282-1.412-0.274-2.354V387.65h11.546v-4.329h-11.546v-5.882L274.152,379.039z"/>
	<path fill="#5B5B5C" d="M287.61,383.321l6.775,22.915h5.411l2.918-9.316c0.329-1.122,0.636-2.274,0.926-3.458
		c0.282-1.192,0.556-2.486,0.815-3.882h0.094c0.173,0.918,0.345,1.788,0.525,2.604c0.181,0.815,0.368,1.608,0.564,2.384
		c0.204,0.776,0.416,1.561,0.651,2.353l2.729,9.316h5.364l7.199-22.915h-5.693l-2.541,10.163c-0.306,1.333-0.596,2.636-0.854,3.906
		c-0.267,1.271-0.479,2.525-0.651,3.764h-0.094c-0.259-1.239-0.541-2.494-0.847-3.764s-0.636-2.573-0.988-3.906l-2.871-10.163
		h-4.705l-3.011,10.446c-0.314,1.184-0.636,2.392-0.973,3.639c-0.329,1.247-0.62,2.494-0.863,3.749h-0.094
		c-0.212-1.247-0.447-2.494-0.698-3.733c-0.259-1.247-0.525-2.478-0.808-3.701l-2.353-10.399H287.61z"/>
	<path fill="#5B5B5C" d="M343.54,396.402c0.047-0.259,0.094-0.596,0.133-1.012c0.031-0.416,0.055-0.895,0.055-1.435
		c0-1.02-0.102-2.047-0.313-3.09c-0.212-1.051-0.557-2.055-1.02-3.011c-0.471-0.957-1.09-1.819-1.858-2.572
		c-0.769-0.761-1.701-1.365-2.808-1.804c-1.105-0.439-2.399-0.666-3.882-0.674c-0.206,0.001-0.409,0.007-0.61,0.016v3.945
		c0.092-0.005,0.186-0.008,0.28-0.009c0.957,0.008,1.749,0.205,2.377,0.573c0.627,0.376,1.113,0.854,1.467,1.435
		c0.353,0.581,0.596,1.185,0.729,1.819c0.142,0.644,0.196,1.231,0.181,1.773h-5.033v4.046H343.54L343.54,396.402z M333.236,406.66
		c0.397,0.029,0.805,0.044,1.222,0.047c1.655-0.007,3.152-0.149,4.494-0.416c1.349-0.266,2.518-0.611,3.505-1.042l-0.847-3.953
		c-0.588,0.204-1.208,0.384-1.843,0.541c-0.644,0.157-1.325,0.274-2.071,0.361c-0.736,0.086-1.544,0.133-2.438,0.133
		c-0.701,0-1.376-0.062-2.021-0.193V406.66z M333.236,382.82c-1.228,0.058-2.355,0.274-3.374,0.658
		c-1.184,0.439-2.228,1.051-3.129,1.835s-1.654,1.694-2.259,2.737c-0.604,1.035-1.059,2.157-1.364,3.356
		c-0.306,1.208-0.463,2.447-0.463,3.725c0.008,2.353,0.479,4.392,1.412,6.118c0.934,1.725,2.274,3.066,4.031,4.015
		c1.461,0.79,3.178,1.253,5.146,1.396v-4.521c-0.213-0.043-0.422-0.094-0.629-0.152c-0.831-0.228-1.568-0.589-2.219-1.067
		c-0.651-0.478-1.161-1.098-1.545-1.843c-0.385-0.752-0.604-1.639-0.644-2.674h5.036v-4.046H328.2
		c0.056-0.596,0.196-1.224,0.424-1.867c0.235-0.651,0.557-1.255,0.98-1.82c0.423-0.557,0.964-1.019,1.607-1.372
		c0.574-0.315,1.249-0.493,2.024-0.533V382.82z"/>
	<rect x="347.392" y="372.781" fill="#5B5B5C" width="5.788" height="33.456"/>
	<path fill="#5B5B5C" d="M356.154,383.321l8.517,22.915h5.693l8.752-22.915h-6.07l-3.67,11.622
		c-0.306,1.028-0.588,2.008-0.847,2.941c-0.259,0.934-0.494,1.867-0.706,2.8h-0.141c-0.212-0.933-0.439-1.875-0.69-2.815
		c-0.251-0.941-0.533-1.922-0.862-2.926l-3.718-11.622H356.154z"/>
	<path fill="#5B5B5C" d="M400.696,396.402c0.047-0.259,0.095-0.596,0.134-1.012c0.031-0.416,0.055-0.895,0.055-1.435
		c0-1.02-0.103-2.047-0.313-3.09c-0.212-1.051-0.558-2.055-1.02-3.011c-0.471-0.957-1.09-1.819-1.858-2.572
		c-0.769-0.761-1.702-1.365-2.808-1.804c-1.106-0.439-2.4-0.666-3.883-0.674c-0.206,0.001-0.409,0.006-0.609,0.016v3.945
		c0.092-0.005,0.186-0.008,0.28-0.009c0.957,0.008,1.749,0.205,2.377,0.573c0.627,0.376,1.113,0.854,1.466,1.435
		s0.597,1.185,0.729,1.819c0.141,0.644,0.196,1.231,0.181,1.773h-5.033v4.046H400.696L400.696,396.402z M390.394,406.66
		c0.396,0.029,0.805,0.044,1.222,0.047c1.654-0.007,3.152-0.149,4.494-0.416c1.349-0.266,2.517-0.611,3.505-1.042l-0.847-3.953
		c-0.588,0.204-1.208,0.384-1.843,0.541c-0.644,0.157-1.326,0.274-2.071,0.361c-0.736,0.086-1.544,0.133-2.438,0.133
		c-0.702,0-1.377-0.062-2.021-0.193V406.66z M390.394,382.82c-1.229,0.058-2.356,0.274-3.374,0.658
		c-1.185,0.439-2.228,1.051-3.129,1.835c-0.902,0.784-1.655,1.694-2.259,2.737c-0.604,1.035-1.059,2.157-1.364,3.356
		c-0.307,1.208-0.463,2.447-0.463,3.725c0.008,2.353,0.479,4.392,1.412,6.118c0.933,1.725,2.273,3.066,4.03,4.015
		c1.462,0.79,3.179,1.253,5.146,1.396v-4.521c-0.214-0.043-0.423-0.094-0.629-0.152c-0.831-0.228-1.568-0.589-2.22-1.067
		c-0.65-0.478-1.16-1.098-1.545-1.843c-0.384-0.752-0.604-1.639-0.644-2.674h5.037v-4.046h-5.037
		c0.056-0.596,0.196-1.224,0.425-1.867c0.234-0.651,0.556-1.255,0.979-1.82c0.424-0.557,0.964-1.019,1.607-1.372
		c0.575-0.315,1.25-0.493,2.025-0.533V382.82z"/>
	
		<path fill-rule="evenodd" clip-rule="evenodd" fill="#C88F11" stroke="#C88F11" stroke-width="1.1645" stroke-miterlimit="22.9256" d="
		M196.797,351.501v5.545h55.451c5.399-0.294,10.02-1.22,13.864-2.772c9.244-3.697,13.863-10.166,13.863-19.408v-3.327h-67.596
		c0.887-8.207,5.711-12.643,12.144-13.308h55.452v-5.545h-55.452c-5.396,0.296-10.019,1.22-13.863,2.773
		c-9.242,3.699-13.863,10.167-13.863,19.408v2.218l67.707,0c-0.519,8.946-5.354,13.752-12.173,14.417H196.797z"/>
</g>
</svg>
